<svg id="svg2811" xmlns="http://www.w3.org/2000/svg" viewBox="0 0 708.66 467.49"><defs><style>.cls-1{fill:#cc071e;}</style></defs><title>hemlogo</title><g id="layer1"><g id="g45263"><path id="path45125" class="cls-1" d="M498,14.18c25.74-12.64,38.5-11,38.78,1.83.35,16.65-2.11,38.78-3.89,54.8C523.36,157.87,507.4,229,506.2,318.38c42-108.84,77.28-184.49,122.7-277.66,14.41-29.69,23.62-24.14,35.46-29.4,46.11-20.53,47.82-7.95,41.81,17.16-22.36,93-79.62,385.86-88.37,431-2.52,13.05-16.7,7.52-20.37,2.42-16.41-22.71-34.94-23.07-32.89-38.17,10.3-75.18,47.37-263.81,57-308.25C572.32,216.4,521.24,342.63,495,414.2c-5.55,15.2-15.68,14.08-22,3-8.87-15.62-26.08-23.6-28.94-42.05-9-58.69,10.29-170.56,13-241.33-26.83,77.31-71.84,227.4-91.58,295.21-8.12,28.06-35.23,23.49-28-3.86,30-113.8,94.56-315.08,122.47-387.44,6.58-17,23.8-16.47,38.1-23.51" transform="translate(0 0)"/><path id="path45127" class="cls-1" d="M334.54.22c-8.7-2.11-33.92,11.5-49.42,14.19-4.92.86-9.61,6.06-11.27,9.78-24.83,57-47.08,111.39-66.36,160.92-24.65,4.21-53.48,9.75-85.74,17,23.11-59.28,46.45-117.74,69.21-174,11.21-27.69-18.3-30.32-29.74-2.29-14.88,36.44-42.73,104.71-73.57,184.28C65,215.68,41,222,15.87,229.29c-18.25,5.26-19,10.13-11.1,21.07,4.35,6.09,13.33,5.48,17.45,9.82,10.64,11.25,17.1,24.71,36.15,26.75-17,45.44-34,92.31-49.37,137.44-9.67,28.32,17.85,34.12,28.43,4.14,17-48.32,35-97.22,53.48-146,15.39-3.57,52.63-11.59,87-19-27.29,74.78-45.25,131.58-52.06,159.23-1.25,5.32.86,8.27,2,10.44,9.2,13.4,18,14,29.8,30.52,3.2,4.52,14,6.95,17.62-4.17,25.28-76.37,51.31-148,75.56-212.27,10.07-2.2,28.2-6.57,39.3-23.13,19.73-29.4,25.39-23.43,30.14-32.37,5.95-11.22,2-21.75-19.05-19.15,0,0-7.95.57-22.65,2.25,23.34-60.09,43.76-111.06,58.46-149.9,5-13.15,5.67-22.76-2.51-24.71" transform="translate(0 0)"/><path id="path45129" class="cls-1" d="M300.1,390c5.44,13.73,22.43,9.57,16-7-6.58-16.89-22.94-67.72-27.23-84.1-5.83-22.07,19.45-16,6.64-1.61-11,12.41-18.31,17.38-38.61,41-19.62,22.77-14.3,52.32,6.69,58.85,23.68,7.37,44.56-18.73,57.49-37.87,12.52-18.54.4-29.42-12.24-18.46-8.13,7.05-17.51,17.87-27,23.71-7.73,4.69-13.79-.35-3.49-14.52,11.95-16.42,25.34-30.17,35.29-45.67,20.31-31.61-19.85-49.83-37.12-29.3-9.27,11-6.92,21.69-4.41,30.91,4.06,14.77,19.17,61.91,28,84.09" transform="translate(0 0)"/></g></g></svg>