<svg id="Layer_1" data-name="Layer 1" xmlns="http://www.w3.org/2000/svg" viewBox="0 0 24.3 24.29"><defs><style>.cls-1{fill:#fff;stroke:#231f20;stroke-miterlimit:10;}</style></defs><title>persoon.henm</title><path class="cls-1" d="M24.28,21.31c-.35-.67-.92-1-2.78-1.87-2.52-1.1-3.17-1.17-4.13-2.06a3.53,3.53,0,0,1-1.14-1.7,3.51,3.51,0,0,1,.34-2.41A7.74,7.74,0,0,0,17.85,11a8.75,8.75,0,0,0,.47-2.8c0-3.76-2.37-6.81-5.3-6.81H12.9C10,1.42,7.6,4.47,7.6,8.23a7.75,7.75,0,0,0,1.75,5,3.26,3.26,0,0,1,.34,2.41,3.82,3.82,0,0,1-1.14,1.7c-1,.89-1.61,1-4.13,2.06-1.86.83-2.42,1.2-2.78,1.87a3,3,0,0,0-.32,1.6,39,39,0,0,0,11.51,1.8h.26a39.15,39.15,0,0,0,11.52-1.8A3.1,3.1,0,0,0,24.28,21.31Z" transform="translate(-0.81 -0.92)"/></svg>