<svg id="Layer_1" data-name="Layer 1" xmlns="http://www.w3.org/2000/svg" viewBox="0 0 26 26"><defs><style>.cls-1{fill:none;stroke:#231f20;stroke-miterlimit:10;}</style></defs><title>persoon2</title><path class="cls-1" d="M24.27,21.42c-.36-.67-.92-1-2.78-1.87-2.52-1.11-3.18-1.17-4.13-2.06a3.58,3.58,0,0,1-1.14-1.7,3.4,3.4,0,0,1,.34-2.41,7.66,7.66,0,0,0,1.27-2.24,8.69,8.69,0,0,0,.48-2.81c0-3.75-2.37-6.8-5.3-6.8h-.13c-2.93,0-5.29,3.05-5.29,6.8a7.7,7.7,0,0,0,1.75,5.05,3.27,3.27,0,0,1,.33,2.41,3.74,3.74,0,0,1-1.14,1.7c-.95.89-1.61,1-4.12,2.06-1.86.83-2.43,1.2-2.78,1.87A3.1,3.1,0,0,0,1.3,23a39.75,39.75,0,0,0,11.51,1.8h.27A39.69,39.69,0,0,0,24.59,23,3.18,3.18,0,0,0,24.27,21.42Z"/></svg>