<svg id="Layer_1" data-name="Layer 1" xmlns="http://www.w3.org/2000/svg" viewBox="0 0 10.07 13.42"><defs><style>.cls-1{fill:none;stroke:#231f20;stroke-miterlimit:10;stroke-width:0.5px;}</style></defs><title>winkelwagen2</title><path class="cls-1" d="M17.54,13.25h0V9.49H8.35v3.76a19.35,19.35,0,0,1-.07,2.35c0,.54-.1.89-.12,1.48a10.66,10.66,0,0,0,.08,1.67,14.34,14.34,0,0,0,4.82.89,14.42,14.42,0,0,0,4.53-.7,8.46,8.46,0,0,0,.14-1.81c0-.73-.12-1.08-.18-1.91A15.53,15.53,0,0,1,17.54,13.25Z" transform="translate(-7.91 -6.46)"/><path class="cls-1" d="M10.66,11.38" transform="translate(-7.91 -6.46)"/><path class="cls-1" d="M12.24,12.27" transform="translate(-7.91 -6.46)"/><path class="cls-1" d="M13.44,12.27" transform="translate(-7.91 -6.46)"/><path class="cls-1" d="M10.41,10.91l0-1.16V8.58a1.87,1.87,0,0,1,1.86-1.87h1.2A1.87,1.87,0,0,1,15.3,8.58l0,2.48" transform="translate(-7.91 -6.46)"/><ellipse class="cls-1" cx="4.82" cy="8.02" rx="1.04" ry="1.52"/></svg>